<svg xmlns="http://www.w3.org/2000/svg" xml:space="preserve" width="655.359" height="655.359" style="shape-rendering:geometricPrecision;text-rendering:geometricPrecision;image-rendering:optimizeQuality;fill-rule:evenodd;clip-rule:evenodd" viewBox="0 0 6.827 6.827"><defs><style>.fil0{fill:#212121}</style></defs><g id="Layer_x0020_1"><g id="_566373976"><g id="Layer_8"><path id="_566366728" class="fil0" d="m3.14 3.12-.007-.001a.058.058 0 0 1-.05-.066l.163-1.258a.058.058 0 0 1 .115.015L3.2 3.068a.058.058 0 0 1-.058.051z"/><path id="_566365648" class="fil0" d="M3.716 3.63a.058.058 0 0 1-.008-.116l1.313-.19a.058.058 0 1 1 .017.115l-1.314.19a.06.06 0 0 1-.008.001z"/><path id="_566365888" class="fil0" d="M2.556 3.469a.058.058 0 0 1-.027-.007l-.74-.382a.058.058 0 1 1 .053-.104l.74.383a.058.058 0 0 1-.026.11z"/><path id="_566365768" class="fil0" d="M1.79 4.498a.058.058 0 0 1-.03-.108l.782-.475a.058.058 0 1 1 .06.1l-.78.475a.058.058 0 0 1-.031.008z"/><path id="_566364880" class="fil0" d="M3.67 5.113a.058.058 0 0 1-.053-.034l-.365-.804a.058.058 0 0 1 .107-.048l.364.804a.058.058 0 0 1-.053.082z"/><ellipse id="_566365216" cx="3.111" cy="3.672" rx=".613" ry=".611" style="fill:#da3127"/><ellipse id="_566363992" cx="3.36" cy="1.408" rx=".396" ry=".395" style="fill:#326fb7"/><ellipse id="_566364256" cx="1.522" cy="2.862" rx=".337" ry=".335" style="fill:#00a79d"/><ellipse id="_566363224" cx="1.483" cy="4.596" rx=".346" ry=".344" style="fill:#f8b53c"/><ellipse id="_566363392" cx="3.822" cy="5.419" rx=".396" ry=".395" style="fill:#44b649"/><ellipse id="_566363872" cx="5.357" cy="3.33" rx=".332" ry=".331" style="fill:#f58120"/></g></g></g><path style="fill:none" d="M0 0h6.827v6.827H0z"/></svg>